<svg id="Layer_1" data-name="Layer 1" xmlns="http://www.w3.org/2000/svg" viewBox="0 0 120.59 61.94"><defs><style>.cls-1,.cls-2{fill:#fff;}.cls-2{font-size:26.83px;stroke:#fff;stroke-miterlimit:10;font-family:JosefinSans-Thin, Josefin Sans;font-weight:200;}</style></defs><title>arrow-right2</title><path id="Rectangle_9" data-name="Rectangle 9" class="cls-1" d="M858,561H970a3,3,0,0,1,3,3h0a3,3,0,0,1-3,3H858a3,3,0,0,1-3-3h0A3,3,0,0,1,858,561Z" transform="translate(-855.02 -516.66)"/><path id="Rectangle_22" data-name="Rectangle 22" class="cls-1" d="M963,550.25,974.77,562a2.86,2.86,0,0,1,0,4h0a2.86,2.86,0,0,1-4,0L959,554.31a2.87,2.87,0,0,1,0-4.06h0A2.89,2.89,0,0,1,963,550.25Z" transform="translate(-855.02 -516.66)"/><path id="Rectangle_23" data-name="Rectangle 23" class="cls-1" d="M959,573.71,970.72,562a2.86,2.86,0,0,1,4,0h0a2.86,2.86,0,0,1,0,4L963,577.76a2.87,2.87,0,0,1-4.06,0h0A2.86,2.86,0,0,1,959,573.71Z" transform="translate(-855.02 -516.66)"/><text class="cls-2" transform="translate(10.9 23.33)">SUBMIT</text></svg>