<svg id="Layer_1" data-name="Layer 1" xmlns="http://www.w3.org/2000/svg" viewBox="0 0 120.59 31.19"><defs><style>.cls-1{fill:#fff;}</style></defs><title>arrow-right</title><path id="Rectangle_9" data-name="Rectangle 9" class="cls-1" d="M903,536.63h112a3,3,0,0,1,3,3h0a3,3,0,0,1-3,3H903a3,3,0,0,1-3-3h0A3,3,0,0,1,903,536.63Z" transform="translate(-900.02 -524.04)"/><path id="Rectangle_22" data-name="Rectangle 22" class="cls-1" d="M1008,524.88l11.73,11.74a2.86,2.86,0,0,1,0,4h0a2.86,2.86,0,0,1-4,0L1004,528.93a2.86,2.86,0,0,1,0-4h0A2.87,2.87,0,0,1,1008,524.88Z" transform="translate(-900.02 -524.04)"/><path id="Rectangle_23" data-name="Rectangle 23" class="cls-1" d="M1004,550.34l11.74-11.74a2.86,2.86,0,0,1,4,0h0a2.87,2.87,0,0,1,0,4.06L1008,554.39a2.87,2.87,0,0,1-4.06,0h0A2.86,2.86,0,0,1,1004,550.34Z" transform="translate(-900.02 -524.04)"/></svg>