<svg id="Layer_1" data-name="Layer 1" xmlns="http://www.w3.org/2000/svg" viewBox="0 0 421.02 477.06"><defs><style>.cls-1{fill:#fff;}</style></defs><title>logo</title><path id="Path_1" data-name="Path 1" class="cls-1" d="M880.17,750.17a41.84,41.84,0,1,0-41.83-41.83,41.83,41.83,0,0,0,41.83,41.83Z" transform="translate(-682.22 -342)"/><path id="Path_2" data-name="Path 2" class="cls-1" d="M847.92,660.36l-118.38-227-47.32,63.19Z" transform="translate(-682.22 -342)"/><path id="Path_3" data-name="Path 3" class="cls-1" d="M859.61,560.88a60.45,60.45,0,0,1-12.85-37.14,143.63,143.63,0,0,1,1-18.77,159,159,0,0,0-55.48,22.15l25.54,51.94A102.3,102.3,0,0,1,859.61,560.88Z" transform="translate(-682.22 -342)"/><path id="Path_4" data-name="Path 4" class="cls-1" d="M847.48,342h88.38a132.93,132.93,0,0,0-23.6,68.68c0,23.44,10.75,31.67,10.75,51.22,0,28.86-32.61,43.28-22.86,70,8.07,22.26,19.7,49.63-27.64,96.38,30.66-51.5-11.4-70.27-13.34-101.86-2.39-38.17,14.42-48.49,14.42-63.85C873.75,428.93,827.94,392.5,847.48,342Z" transform="translate(-682.22 -342)"/><path id="Path_5" data-name="Path 5" class="cls-1" d="M1013.49,577.33l-41.84,43.28a101.86,101.86,0,1,1-184.1-5.77l-42.94-40.19a158.71,158.71,0,1,0,268.88,2.68Z" transform="translate(-682.22 -342)"/><path id="Path_6" data-name="Path 6" class="cls-1" d="M918.48,567.43a101,101,0,0,1,29.35,19.34l24.6-53.89a160,160,0,0,0-56.7-26.48A34,34,0,0,0,910,518.09c-2,8.16,6,21.64,7.79,30.95A74.53,74.53,0,0,1,918.48,567.43Z" transform="translate(-682.22 -342)"/><path id="Path_7" data-name="Path 7" class="cls-1" d="M1026.91,446.39l76.33,12-178.42,200Z" transform="translate(-682.22 -342)"/></svg>