<svg id="Layer_1" data-name="Layer 1" xmlns="http://www.w3.org/2000/svg" viewBox="0 0 1030.69 187.05"><defs><style>.cls-1{fill:#fff;}</style></defs><title>logo2</title><g id="Lag_1" data-name="Lag 1"><path id="Path_27" data-name="Path 27" class="cls-1" d="M834.27,662.16a14.79,14.79,0,1,0-14.78-14.79h0A14.79,14.79,0,0,0,834.27,662.16Z" transform="translate(-445.11 -517.95)"/><path id="Path_28" data-name="Path 28" class="cls-1" d="M470.32,622.45c0,17.68.86,25.48,5.09,30.58a11.82,11.82,0,0,0,9.41,4,11.31,11.31,0,0,0,9.81-5.1c3-4.54,3.21-9.18,3.21-34.26v-4.28c0-7.64-.43-15.29-.53-19.34h25.28c0,2.54.13,10.83.13,19.57v5.1c0,21.23-1.22,34.25-9.61,44.32a37.72,37.72,0,0,1-29.75,12.33c-9.06,0-22.53-1.53-30.94-13.8-5.43-8.06-7.31-16.17-7.31-43.08V595.68H471a160.8,160.8,0,0,0-.67,19.26Z" transform="translate(-445.11 -517.95)"/><path id="Path_29" data-name="Path 29" class="cls-1" d="M530.08,673.6c.67-7.85,3.32-64.43,4.41-79l1.12-.66c15.68,11.49,51.15,38.23,55,41.21,0-6.09-.33-35.68-.23-40.45l22.56.56c-.67,8.63-1.66,25.08-2.55,41.21s-1.76,31.6-2.19,38.8l-1.12.56c-13.26-8.63-53.14-40.22-54.8-41.57,0,4.54,0,36.47.2,40.11Z" transform="translate(-445.11 -517.95)"/><path id="Path_30" data-name="Path 30" class="cls-1" d="M684.53,656.47c0,4.2.23,14,.23,16.36a107.2,107.2,0,0,1-24.42,2.55c-32.16-.43-45.64-15.47-45.64-32.8,0-13.48,11.72-39.46,57-49.4l5.1,21.64c-14.91,2-36,11.39-36,26.53,0,10.93,11.62,15.29,20,15v-8.84c0-3.21-.22-6.19-.22-9.28H684.7v10.2Z" transform="translate(-445.11 -517.95)"/><path id="Path_31" data-name="Path 31" class="cls-1" d="M696.82,625c0-2.32-.13-26.74-.56-29.83a305.34,305.34,0,0,1,42.43,2c29,4,34.5,19,34.5,28,0,34.79-41.34,49.07-77,49.07.43-5.1.67-32.5.67-35.48Zm24.31,29c10.81-1.79,25.74-9.64,25.74-25.1,0-13-13.25-16.14-25.74-16.14Z" transform="translate(-445.11 -517.95)"/><path id="Path_32" data-name="Path 32" class="cls-1" d="M882.67,669c1.88-4.43,24.19-62.21,30.58-76.26h1.1c6.75,11,23.09,38,26.53,43.66,4.31-6.52,19.88-32.37,25.74-41.87h1.1c7.64,16.33,29.84,66.52,32.82,72.59L978.22,677c-3.52-8.81-14-36.9-15.29-39.88-1.33,2-15.47,23.75-23.76,35.36h-1.12c-8.49-12.74-20.11-31.6-21.87-34.93-1.88,5.74-9.83,34.25-11.82,39.43Z" transform="translate(-445.11 -517.95)"/><path id="Path_33" data-name="Path 33" class="cls-1" d="M999.12,656.7c10.73.33,22.46-2.55,22.46-7.85,0-2.22-1.89-3.54-10.84-8.62-7-4-15-9.49-15-18.79,0-12.38,16.46-25.87,44.41-28.29l3,18.45c-13.8,0-20.77,2.32-20.77,6.86,0,2.55,3.55,4.31,10.73,7.82,5.83,2.88,15.29,7.85,15.29,17.84,0,12.16-12.74,27.63-46.28,31.49Z" transform="translate(-445.11 -517.95)"/><path id="Path_34" data-name="Path 34" class="cls-1" d="M1078.38,638.68c0,4.2.34,32.16.57,33.82h-24.7c.45-2.55.23-37.69.23-40v-9.06c0-3.34-.23-27.3-.56-29.41a356.83,356.83,0,0,1,40.44,1.55c16.36,2.1,25.21,8.52,25.21,18.69,0,9-5.63,16-14.28,22.09,3.32,3.75,20.24,20.88,23.09,24.42l-20.21,15.29c-2.55-4.18-24-35.25-27-40.1,4.87-2.86,12.75-9,12.75-16.34,0-5.1-3.65-10.19-15.6-10.19Z" transform="translate(-445.11 -517.95)"/><path id="Path_35" data-name="Path 35" class="cls-1" d="M1158.56,640.82c0,11,.33,30.81.46,33.36h-25.64c.2-4.87.33-30.58.33-33.59V628.66c0-1.88-.33-30.27-.33-32.93H1159c-.13,2-.46,19.88-.46,33.14Z" transform="translate(-445.11 -517.95)"/><path id="Path_36" data-name="Path 36" class="cls-1" d="M1167.08,673.19c.66-7.85,3.31-64.43,4.4-79l1.1-.66c15.7,11.49,51.17,38.23,55.05,41.21,0-6.09-.33-35.68-.23-40.45l22.53.56c-.66,8.63-1.65,25.08-2.55,41.21s-1.65,31.71-2,38.9l-1.09.56c-13.37-8.74-53.27-40.33-55-41.67,0,4.53,0,36.47.21,40.1Z" transform="translate(-445.11 -517.95)"/><path id="Path_37" data-name="Path 37" class="cls-1" d="M1325.73,656.47c0,4.18.23,14,.23,16.33a106.26,106.26,0,0,1-24.44,2.55c-32.14-.43-45.62-15.47-45.62-32.83,0-13.48,11.7-39.45,57-49.39l5.1,21.66c-14.91,2-36,11.39-36,26.53,0,10.93,11.6,15.29,20,15V647.5c0-3.19-.23-6.17-.23-9.28h24v10.2Z" transform="translate(-445.11 -517.95)"/><path id="Path_38" data-name="Path 38" class="cls-1" d="M1385,676.1c-4,0-43.86-1.12-49.59-1.12.3-5.86.3-29.49.3-32V628.13c0-1.76-.2-28.39-.3-31.6,6.16,0,43.32-1.66,47.4-2l.44,18.22c-4.11,0-21.44.56-23.43.56v14.59c2.2,0,14.91-.54,19.78-1l.33,17.68c-3,0-17.68-.43-20.11-.43v13.16c2.86,0,19.55.2,24.75-.23Z" transform="translate(-445.11 -517.95)"/><path id="Path_39" data-name="Path 39" class="cls-1" d="M1392.94,672.86c.67-7.85,3.31-64.43,4.41-79l1.1-.66c15.7,11.49,51.17,38.23,55,41.21,0-6.07-.33-35.68-.23-40.45l22.53.56c-.67,8.63-1.66,25.08-2.55,41.21s-1.66,31.71-2,38.9l-1.09.56c-13.26-8.63-53.17-40.22-54.82-41.54,0,4.51.13,36.44.22,40.1Z" transform="translate(-445.11 -517.95)"/><path id="Path_40" data-name="Path 40" class="cls-1" d="M822.88,630.42l-41.83-80.18-16.72,22.33Z" transform="translate(-445.11 -517.95)"/><path id="Path_41" data-name="Path 41" class="cls-1" d="M827,595.28a21.33,21.33,0,0,1-4.53-13.13,48.94,48.94,0,0,1,.36-6.63,56.19,56.19,0,0,0-19.61,7.81l9,18.37A35.91,35.91,0,0,1,827,595.28Z" transform="translate(-445.11 -517.95)"/><path id="Path_42" data-name="Path 42" class="cls-1" d="M822.73,518H853.9a47.19,47.19,0,0,0-8.31,24.26c0,8.29,3.8,11.19,3.8,18.11,0,10.2-11.52,15.3-8.11,24.75,2.86,7.85,7,17.54-9.73,34.07,10.83-18.2-4-24.82-4.72-36-.86-13.48,5.1-17.12,5.1-22.55C832,548.66,815.82,535.79,822.73,518Z" transform="translate(-445.11 -517.95)"/><path id="Path_43" data-name="Path 43" class="cls-1" d="M881.36,601.09l-14.81,15.29a36,36,0,1,1-65-2l-15.16-14.17a56.06,56.06,0,1,0,95,1Z" transform="translate(-445.11 -517.95)"/><path id="Path_44" data-name="Path 44" class="cls-1" d="M847.81,597.6a36,36,0,0,1,10.37,6.83l8.69-19a56.49,56.49,0,0,0-20-9.36,12.18,12.18,0,0,0-2,4.13c-.71,2.88,2.15,7.65,2.75,10.93A26.78,26.78,0,0,1,847.81,597.6Z" transform="translate(-445.11 -517.95)"/><path id="Path_45" data-name="Path 45" class="cls-1" d="M886.11,554.83l27,4.23L850,629.71Z" transform="translate(-445.11 -517.95)"/><path id="Path_46" data-name="Path 46" class="cls-1" d="M1057.53,687.75l-.73,3.13h4.25l-.56,2.68h-4.25l-1.41,6.52h-3.13l3.19-15h10l-.56,2.55Z" transform="translate(-445.11 -517.95)"/><path id="Path_47" data-name="Path 47" class="cls-1" d="M1071.58,691.69a1.89,1.89,0,0,0-1-.38,2.3,2.3,0,0,0-1.51.53,2.58,2.58,0,0,0-.89,1.43l-1.43,6.81h-2.91l2.55-11.65h2.91l-.2.89a4,4,0,0,1,2.77-1.14,2.53,2.53,0,0,1,1.56.43Z" transform="translate(-445.11 -517.95)"/><path id="Path_48" data-name="Path 48" class="cls-1" d="M1072.57,700.08l2.55-11.63h3.13l-2.54,11.63Zm5.56-12.75a2.16,2.16,0,0,1-1.35.48,1.36,1.36,0,0,1-1.1-.48,1.39,1.39,0,0,1-.25-1.2,2.26,2.26,0,0,1,2.09-1.72,1.3,1.3,0,0,1,1.09.51,1.41,1.41,0,0,1,.26,1.22,2.06,2.06,0,0,1-.74,1.15Z" transform="translate(-445.11 -517.95)"/><path id="Path_49" data-name="Path 49" class="cls-1" d="M1084.68,700a11,11,0,0,1-2.22.26c-2.21,0-3.08-1.23-2.54-3.7l1.17-5.55h-1.36l.54-2.55h1.4l.41-1.91,3.24-1.46-.71,3.37h2.55l-.56,2.55h-2.55l-.9,4.23c-.38,1.72,0,2.55,1,2.55a6,6,0,0,0,1.68-.36Z" transform="translate(-445.11 -517.95)"/><path id="Path_50" data-name="Path 50" class="cls-1" d="M1087.22,700.08l2.55-11.63h3.14l-2.55,11.63Zm5.56-12.75a2.14,2.14,0,0,1-1.35.48,1.36,1.36,0,0,1-1.1-.48,1.43,1.43,0,0,1-.25-1.2,2.27,2.27,0,0,1,2.09-1.72,1.31,1.31,0,0,1,1.1.51,1.4,1.4,0,0,1,.25,1.22,2.06,2.06,0,0,1-.74,1.15Z" transform="translate(-445.11 -517.95)"/><path id="Path_51" data-name="Path 51" class="cls-1" d="M1100.81,700.05l.23-1a3.83,3.83,0,0,1-3,1.07,4.29,4.29,0,0,1-3.62-1.51,4.69,4.69,0,0,1-.69-4,8.53,8.53,0,0,1,2.35-4.31,6,6,0,0,1,4.41-2,4.5,4.5,0,0,1,2.55.82l.71-3.37,3.39-1.12-3.29,15.3Zm1.53-7.16a3.44,3.44,0,0,0-.61-1.09,1.79,1.79,0,0,0-1.29-.51,3.37,3.37,0,0,0-2,.51,4.53,4.53,0,0,0-1.53,2.82,2.34,2.34,0,0,0,.3,2,2.3,2.3,0,0,0,1.89.77,2.57,2.57,0,0,0,1.55-.69,7,7,0,0,0,1.1-1.15Z" transform="translate(-445.11 -517.95)"/><path id="Path_52" data-name="Path 52" class="cls-1" d="M1112.1,700.11a12.49,12.49,0,0,1-1.73,0,10.69,10.69,0,0,1-4.1-1.1l1.63-2.55a5.78,5.78,0,0,0,3.36.89c1.23,0,1.89-.35,2-1s-.28-.61-1-.81a17.41,17.41,0,0,1-2.55-.77,2.55,2.55,0,0,1-1.83-3.1.29.29,0,0,1,0-.09,4.11,4.11,0,0,1,2.42-2.82,8.15,8.15,0,0,1,3.69-.82,5.9,5.9,0,0,1,3.73,1l-1.54,2.7a8.25,8.25,0,0,0-1.57-.79,5.64,5.64,0,0,0-1.73-.23c-.86,0-1.35.31-1.48.92s.31.64,1.12.86a20.14,20.14,0,0,1,2.55.74,2.54,2.54,0,0,1,1.63,3.21A4.69,4.69,0,0,1,1112.1,700.11Z" transform="translate(-445.11 -517.95)"/><path id="Path_53" data-name="Path 53" class="cls-1" d="M1119.65,693.35l.56-2.55h5.09l-.56,2.55Z" transform="translate(-445.11 -517.95)"/><path id="Path_54" data-name="Path 54" class="cls-1" d="M1145.51,698.63a6.85,6.85,0,0,1-4.66,1.65,4.59,4.59,0,0,1-3.95-1.63,5.3,5.3,0,0,1-.64-4.38,7.63,7.63,0,0,1,2.55-4.32,7,7,0,0,1,4.61-1.72,4.51,4.51,0,0,1,3.88,1.72,5.14,5.14,0,0,1,.74,4.32A7.72,7.72,0,0,1,1145.51,698.63Zm-2.68-7.65a2.89,2.89,0,0,0-2.21,1,5,5,0,0,0-1.07,2.27c-.46,2.15.18,3.21,1.93,3.21a2.79,2.79,0,0,0,2.55-1.2,5.86,5.86,0,0,0,.77-2c.38-2.16-.26-3.26-2-3.26Z" transform="translate(-445.11 -517.95)"/><path id="Path_55" data-name="Path 55" class="cls-1" d="M1158,702.45a6.5,6.5,0,0,1-5,2.55l.21-2.83a4.29,4.29,0,0,0,2.29-.9,3.07,3.07,0,0,0,1.12-1.88,4.14,4.14,0,0,1-1.32.64,6.09,6.09,0,0,1-1.35,0,6.94,6.94,0,0,1-2.16-.36,3,3,0,0,1-1.43-1,6.08,6.08,0,0,1-.45-4.69,7,7,0,0,1,2.37-3.88,6.4,6.4,0,0,1,4.23-1.6,4.48,4.48,0,0,1,2.42.64l.13-.64h3.16l-1.94,9.15a10.49,10.49,0,0,1-2.29,4.84Zm.13-9.53a1.18,1.18,0,0,0-.41-1.1,1.52,1.52,0,0,0-1.09-.51,3.63,3.63,0,0,0-2.25.71,3.52,3.52,0,0,0-1.2,2c-.45,2.12,0,3.16,1.73,3.16a3.34,3.34,0,0,0,1.66-.48,1.83,1.83,0,0,0,1-1.05Z" transform="translate(-445.11 -517.95)"/><path id="Path_56" data-name="Path 56" class="cls-1" d="M1180.3,700l.2-1a5.43,5.43,0,0,1-3.49,1.17,3.17,3.17,0,0,1-3.52-2.76,3.27,3.27,0,0,1,.16-1.42l1.63-7.65h3.13L1177,695a2.15,2.15,0,0,0,.17,1.63,1.43,1.43,0,0,0,1.33.61,2.91,2.91,0,0,0,2.83-2.24l1.4-6.58h3.13L1183.35,700Z" transform="translate(-445.11 -517.95)"/><path id="Path_57" data-name="Path 57" class="cls-1" d="M1193.69,700.08l1.4-6.58a2.08,2.08,0,0,0-.18-1.6,1.45,1.45,0,0,0-1.35-.64,2.89,2.89,0,0,0-1.78.61,2.75,2.75,0,0,0-1,1.63l-1.4,6.58h-3.13l2.55-11.62h3.13l-.2,1a5.46,5.46,0,0,1,3.52-1.17,3.41,3.41,0,0,1,2.83,1.14,3.58,3.58,0,0,1,.53,3.06l-1.63,7.65Z" transform="translate(-445.11 -517.95)"/><path id="Path_58" data-name="Path 58" class="cls-1" d="M1208.39,702.45a6.45,6.45,0,0,1-5.09,2.55l.17-2.83a4.26,4.26,0,0,0,2.32-.89,3,3,0,0,0,1.12-1.89,3.77,3.77,0,0,1-1.32.64,6.09,6.09,0,0,1-1.35,0,6.66,6.66,0,0,1-2.16-.36,3,3,0,0,1-1.42-1,6.09,6.09,0,0,1-.46-4.69,7,7,0,0,1,2.37-3.88,6.41,6.41,0,0,1,4.21-1.61,4.52,4.52,0,0,1,2.54.64v-.66h3.17l-1.94,9.15A10.58,10.58,0,0,1,1208.39,702.45Zm0-9.53a1.14,1.14,0,0,0-.41-1.09,1.48,1.48,0,0,0-1.09-.51,3.58,3.58,0,0,0-2.24.71,3.39,3.39,0,0,0-1.2,2c-.46,2.12,0,3.16,1.72,3.16a3.24,3.24,0,0,0,1.66-.48,1.81,1.81,0,0,0,1-1Z" transform="translate(-445.11 -517.95)"/><path id="Path_59" data-name="Path 59" class="cls-1" d="M1220.44,700.05l.23-1a3.9,3.9,0,0,1-3,1.07,4.29,4.29,0,0,1-3.59-1.51,4.59,4.59,0,0,1-.71-4,8.48,8.48,0,0,1,2.37-4.31,6.06,6.06,0,0,1,4.39-2,4.44,4.44,0,0,1,2.54.82l.72-3.37,3.36-1.12-3.26,15.3Zm1.53-7.16a4.48,4.48,0,0,0-.61-1.09,1.87,1.87,0,0,0-1.29-.51,3.3,3.3,0,0,0-2,.51,4.69,4.69,0,0,0-1.56,2.82,2.56,2.56,0,0,0,.3,2,2.36,2.36,0,0,0,1.92.77,2.59,2.59,0,0,0,1.55-.69,6.85,6.85,0,0,0,1.07-1.15Z" transform="translate(-445.11 -517.95)"/><path id="Path_60" data-name="Path 60" class="cls-1" d="M1236.14,698.63a7,7,0,0,1-4.66,1.65,4.62,4.62,0,0,1-3.93-1.63,5.37,5.37,0,0,1-.63-4.38,7.8,7.8,0,0,1,2.54-4.32,7,7,0,0,1,4.59-1.72,4.51,4.51,0,0,1,3.88,1.72,5.07,5.07,0,0,1,.74,4.32A7.61,7.61,0,0,1,1236.14,698.63Zm-2.7-7.65a2.87,2.87,0,0,0-2.19,1,4.91,4.91,0,0,0-1.09,2.27c-.46,2.15.18,3.21,1.93,3.21a2.79,2.79,0,0,0,2.55-1.2,5.86,5.86,0,0,0,.77-2c.38-2.16-.21-3.26-2-3.26Z" transform="translate(-445.11 -517.95)"/><path id="Path_61" data-name="Path 61" class="cls-1" d="M1254.42,700.08l1.4-6.58a2.22,2.22,0,0,0-.17-1.6,1.43,1.43,0,0,0-1.35-.64,2.77,2.77,0,0,0-2.55,1.4,1.6,1.6,0,0,0-.23.54l-1.48,6.9h-3.12l1.4-6.58a2.22,2.22,0,0,0-.17-1.6,1.43,1.43,0,0,0-1.35-.64,2.83,2.83,0,0,0-1.79.61,2.73,2.73,0,0,0-1,1.63l-1.4,6.58h-3.11l2.55-11.63h3.1l-.22,1a5.63,5.63,0,0,1,3.51-1.18,3.52,3.52,0,0,1,2.81,1.1,8.1,8.1,0,0,1,4-1,4.65,4.65,0,0,1,3.21,1,3,3,0,0,1,.87,3.13l-1.63,7.65Z" transform="translate(-445.11 -517.95)"/><path id="Path_62" data-name="Path 62" class="cls-1" d="M1265.78,700.1a12.34,12.34,0,0,1-1.72,0A10.81,10.81,0,0,1,1260,699l1.63-2.55a5.86,5.86,0,0,0,3.36.89c1.23,0,1.89-.36,2-1s-.28-.62-1-.82a17.38,17.38,0,0,1-2.55-.76,2.56,2.56,0,0,1-1.84-3.11l0-.08a4.14,4.14,0,0,1,2.37-2.93,8.17,8.17,0,0,1,3.7-.82,5.86,5.86,0,0,1,3.72,1l-1.55,2.7a9.32,9.32,0,0,0-1.58-.79,5.92,5.92,0,0,0-1.73-.23c-.86,0-1.35.31-1.48.92s.31.64,1.12.86a20.14,20.14,0,0,1,2.55.74,2.54,2.54,0,0,1,1.63,3.21,4.72,4.72,0,0,1-4.56,3.89Z" transform="translate(-445.11 -517.95)"/><path id="Path_63" data-name="Path 63" class="cls-1" d="M1278.73,700.08l-2.09-5.1-1.4,1.14-.86,4h-3.14l3-14,3.45-1.56-1.63,7.65,4-3.29h4.39l-4.92,4.06,2.86,7.15Z" transform="translate(-445.11 -517.95)"/><path id="Path_64" data-name="Path 64" class="cls-1" d="M1284.65,700.08l3-13.92,3.49-1.63-3.31,15.6Z" transform="translate(-445.11 -517.95)"/><path id="Path_65" data-name="Path 65" class="cls-1" d="M1298.08,700l.23-1a5.53,5.53,0,0,1-3.49,1.17,3.43,3.43,0,0,1-2.86-1.12,3.58,3.58,0,0,1-.53-3.06l1.63-7.65h3.13l-1.37,6.58a2.25,2.25,0,0,0,.17,1.63,1.45,1.45,0,0,0,1.33.61,2.83,2.83,0,0,0,1.78-.61,2.75,2.75,0,0,0,1.05-1.63l1.4-6.58h3.13L1301.13,700Z" transform="translate(-445.11 -517.95)"/><path id="Path_66" data-name="Path 66" class="cls-1" d="M1314.21,698.16a6.39,6.39,0,0,1-4.61,1.92c-1.35,0-2.16-.36-2.55-1.07l-.23,1h-3.16l3-14.28,3.42-1.12-1,4.49a6.36,6.36,0,0,1,3.06-.86,3.57,3.57,0,0,1,3.31,1.55,6.34,6.34,0,0,1,.46,4.79,6.9,6.9,0,0,1-1.72,3.54Zm-1.63-6.62a2.49,2.49,0,0,0-1.53-.36,2.72,2.72,0,0,0-1.53.51,4,4,0,0,0-1.07,1.09l-.56,2.7a4.47,4.47,0,0,0,.59,1.15,1.45,1.45,0,0,0,1.25.66,3.33,3.33,0,0,0,2.19-.71,3.54,3.54,0,0,0,1.2-2.06c.34-1.5.16-2.49-.54-3Z" transform="translate(-445.11 -517.95)"/><path id="Path_67" data-name="Path 67" class="cls-1" d="M1327.64,698.16a6.39,6.39,0,0,1-4.61,1.92c-1.35,0-2.16-.36-2.55-1.07l-.23,1h-3.16l3-14.28,3.41-1.12-1,4.49a6.39,6.39,0,0,1,3.06-.86,3.6,3.6,0,0,1,3.31,1.55,6.34,6.34,0,0,1,.46,4.79,6.88,6.88,0,0,1-1.76,3.54Zm-1.63-6.62a2.61,2.61,0,0,0-1.6-.28,2.83,2.83,0,0,0-1.51.5,4.3,4.3,0,0,0-1.07,1.1l-.58,2.7a6.33,6.33,0,0,0,.61,1.15,1.46,1.46,0,0,0,1.25.66,3.33,3.33,0,0,0,2.19-.71,3.54,3.54,0,0,0,1.2-2.07c.3-1.54.14-2.56-.48-3.05Z" transform="translate(-445.11 -517.95)"/><path id="Path_68" data-name="Path 68" class="cls-1" d="M1334.45,695.69a1.12,1.12,0,0,0,.43,1.2,2.3,2.3,0,0,0,1.15.61h.71a2.87,2.87,0,0,0,2.21-.89l1.89,1.66a6.7,6.7,0,0,1-2.19,1.45,7,7,0,0,1-2.55.51,4.64,4.64,0,0,1-3.92-1.6,5.1,5.1,0,0,1-.72-4.32,8.36,8.36,0,0,1,2.55-4.58,6.9,6.9,0,0,1,4.77-1.66,3.76,3.76,0,0,1,3.82,2.37,9.21,9.21,0,0,1,0,5.1Zm5.25-4.23a1.91,1.91,0,0,0-1.63-.73,3.13,3.13,0,0,0-2,.71,3,3,0,0,0-1.15,1.78h5.1a2,2,0,0,0-.33-1.76Z" transform="translate(-445.11 -517.95)"/><path id="Path_69" data-name="Path 69" class="cls-1" d="M1351.71,691.69a1.91,1.91,0,0,0-1.07-.38,2.43,2.43,0,0,0-2.37,2l-1.46,6.81h-2.88l2.55-11.65h2.88l-.18.89a4.07,4.07,0,0,1,2.78-1.14,2.55,2.55,0,0,1,1.56.43Z" transform="translate(-445.11 -517.95)"/><path id="Path_70" data-name="Path 70" class="cls-1" d="M1360.65,700.08l2.55-11.63h3.13l-2.54,11.63Zm5.56-12.75a2.16,2.16,0,0,1-1.35.48,1.36,1.36,0,0,1-1.1-.48,1.39,1.39,0,0,1-.25-1.2,2,2,0,0,1,.73-1.22,2.06,2.06,0,0,1,1.35-.51,1.31,1.31,0,0,1,1.1.51,1.41,1.41,0,0,1,.25,1.22,2.1,2.1,0,0,1-.73,1.15Z" transform="translate(-445.11 -517.95)"/><path id="Path_71" data-name="Path 71" class="cls-1" d="M1390.88,696.72a10.21,10.21,0,0,1-4.13,2.7,11.58,11.58,0,0,1-4,.66h-5.1l3.19-15h5.25a8.92,8.92,0,0,1,4.58,1.07,5.19,5.19,0,0,1,2.55,3.45,6.5,6.5,0,0,1,0,2.91,9.08,9.08,0,0,1-2.34,4.2Zm-2.27-7.65a5.08,5.08,0,0,0-3.75-1.2h-1.13l-2,9.15h1.29a7.16,7.16,0,0,0,4.63-1.49,5.25,5.25,0,0,0,1.84-3,3.43,3.43,0,0,0-.92-3.29Z" transform="translate(-445.11 -517.95)"/><path id="Path_72" data-name="Path 72" class="cls-1" d="M1401.09,700l.15-.74a8,8,0,0,1-3.45.82,3.42,3.42,0,0,1-2.85-1.05,3.34,3.34,0,0,1-.46-2.95,5,5,0,0,1,2.15-3.22,6.8,6.8,0,0,1,3.67-1,4.54,4.54,0,0,1,2.4.61c.28-1.37-.38-2.06-2-2.06a3.91,3.91,0,0,0-2.55.81l-.69-2a5.3,5.3,0,0,1,2.09-1,8,8,0,0,1,2.12-.3,5.1,5.1,0,0,1,3.31,1,3,3,0,0,1,.89,3.16l-1.68,7.92Zm1-4.87c0-.2-.16-.38-.46-.53a2.94,2.94,0,0,0-1.17-.23c-1.66,0-2.55.53-2.81,1.63s.41,1.37,1.83,1.37a5.2,5.2,0,0,0,1.3-.28c.64-.2,1-.35,1-.53Z" transform="translate(-445.11 -517.95)"/><path id="Path_73" data-name="Path 73" class="cls-1" d="M1414.38,700.08l1.41-6.58a2.21,2.21,0,0,0-.21-1.61,1.41,1.41,0,0,0-1.35-.63,2.81,2.81,0,0,0-1.76.61,2.78,2.78,0,0,0-1,1.63l-1.4,6.58h-3.14l2.55-11.63h3.14l-.23,1a5.67,5.67,0,0,1,3.52-1.17,3.17,3.17,0,0,1,3.36,4.21l-1.6,7.64Z" transform="translate(-445.11 -517.95)"/><path id="Path_74" data-name="Path 74" class="cls-1" d="M1434.86,700.08l1.41-6.58a2.13,2.13,0,0,0-.18-1.6,1.4,1.4,0,0,0-1.35-.64,2.78,2.78,0,0,0-2.55,1.4,2.14,2.14,0,0,0-.23.54l-1.48,6.9h-3.11l1.4-6.58a2.12,2.12,0,0,0-.18-1.6,1.43,1.43,0,0,0-1.35-.64,2.79,2.79,0,0,0-1.78.61,2.75,2.75,0,0,0-1,1.63l-1.4,6.58h-3.11l2.55-11.63h3.11l-.2,1a5.51,5.51,0,0,1,3.51-1.18,3.46,3.46,0,0,1,2.78,1.1,8.13,8.13,0,0,1,4-1,4.67,4.67,0,0,1,3.22,1,3,3,0,0,1,.86,3.14l-1.63,7.64Z" transform="translate(-445.11 -517.95)"/><path id="Path_75" data-name="Path 75" class="cls-1" d="M1447.86,700l.15-.74a7.92,7.92,0,0,1-3.45.82,3.46,3.46,0,0,1-2.83-1.05,3.3,3.3,0,0,1-.45-2.95,4.86,4.86,0,0,1,2.15-3.22,6.71,6.71,0,0,1,3.65-1,4.66,4.66,0,0,1,2.42.61c.25-1.37-.41-2.06-2-2.06a3.89,3.89,0,0,0-2.55.81l-.69-2a5.11,5.11,0,0,1,2.06-1,8.28,8.28,0,0,1,2.16-.3,5.1,5.1,0,0,1,3.31,1,3,3,0,0,1,.89,3.16L1451,700Zm1-4.87c0-.2,0-.38-.46-.53a2.88,2.88,0,0,0-1.2-.23c-1.63,0-2.54.53-2.8,1.63s.43,1.37,1.86,1.37a5.27,5.27,0,0,0,1.25-.28c.66-.2,1-.35,1-.53Z" transform="translate(-445.11 -517.95)"/><path id="Path_76" data-name="Path 76" class="cls-1" d="M1461.42,691.69a2,2,0,0,0-1.07-.38,2.39,2.39,0,0,0-1.5.53,2.58,2.58,0,0,0-.87,1.43l-1.45,6.81h-2.91l2.55-11.65h2.91l-.18.89a4.07,4.07,0,0,1,2.78-1.14,2.5,2.5,0,0,1,1.55.43Z" transform="translate(-445.11 -517.95)"/><path id="Path_77" data-name="Path 77" class="cls-1" d="M1469.81,700.08l-2.09-5.1-1.43,1.14-.86,4h-3.14l3-14,3.45-1.56-1.65,7.65,4-3.29h4.39L1470.6,693l2.86,7.15Z" transform="translate(-445.11 -517.95)"/></g></svg>