<svg id="Layer_1" data-name="Layer 1" xmlns="http://www.w3.org/2000/svg" viewBox="0 0 512 512"><defs><style>.cls-1{fill:#ff7f00;}</style></defs><title>no-drinking</title><path class="cls-1" d="M175.12,406.3A16.07,16.07,0,0,0,197.64,404L335,235.87s10.72-13.08-1.69-23.22c-3.76-3.07-5.92-10.51-2.4-14.81l46.52-57s6.84-7.9.59-13l-20.46-16.72c-6.39-5.21-12.65,3.16-12.65,3.16l-46.53,57c-3.9,4.78-11.8,3.2-14.63.89-12.39-10.12-23.09,3-23.09,3L123.29,343.29a16.05,16.05,0,0,0,2.27,22.51ZM256,448C150.1,448,64,361.9,64,256A190.67,190.67,0,0,1,99.7,144.9L367.1,412.3A190.67,190.67,0,0,1,256,448Zm156.3-80.9L144.9,99.7A190.67,190.67,0,0,1,256,64c105.9,0,192,86.1,192,192a190.67,190.67,0,0,1-35.7,111.1ZM356,8448m0-16383M256,0C114.6,0,0,114.6,0,256S114.6,512,256,512,512,397.4,512,256,397.4,0,256,0Z"/></svg>