<svg id="Layer_1" data-name="Layer 1" xmlns="http://www.w3.org/2000/svg" viewBox="0 0 512 512"><defs><style>.cls-1{fill:#ff7f00;}</style></defs><title>no-smoking</title><path class="cls-1" d="M96,304a16,16,0,0,0,16,16H229.5l-96-96H112a16,16,0,0,0-16,16ZM256,0C114.6,0,0,114.6,0,256S114.6,512,256,512,512,397.4,512,256,397.4,0,256,0Zm0,448C150.1,448,64,361.9,64,256A190.67,190.67,0,0,1,99.7,144.9L367.1,412.3A190.67,190.67,0,0,1,256,448Zm45.2-192H384v32H333.2ZM412.3,367.1,365.2,320H400a16,16,0,0,0,16-16V240a16,16,0,0,0-16-16H269.2L144.9,99.7A190.67,190.67,0,0,1,256,64c105.9,0,192,86.1,192,192a190.67,190.67,0,0,1-35.7,111.1ZM320.6,128a32,32,0,0,1-31.4-25.9,7.74,7.74,0,0,0-7.7-6.1H265.3a8.17,8.17,0,0,0-8,9.4A64.07,64.07,0,0,0,320.6,160,32,32,0,0,1,352,185.9a7.74,7.74,0,0,0,7.7,6.1h16.2a8.17,8.17,0,0,0,8-9.4A64.07,64.07,0,0,0,320.6,128Z"/></svg>