<svg id="Layer_1" data-name="Layer 1" xmlns="http://www.w3.org/2000/svg" viewBox="0 0 512 512"><defs><style>.cls-1{fill:#ff7f00;}</style></defs><title>no-weed</title><path class="cls-1" d="M256,448C150.1,448,64,361.9,64,256A190.67,190.67,0,0,1,99.7,144.9L367.1,412.3A190.67,190.67,0,0,1,256,448Zm156.3-80.9L144.9,99.7A190.67,190.67,0,0,1,256,64c105.9,0,192,86.1,192,192a190.67,190.67,0,0,1-35.7,111.1ZM356,8448m0-16383M256,0C114.6,0,0,114.6,0,256S114.6,512,256,512,512,397.4,512,256,397.4,0,256,0ZM401.47,317.28c-.91-.48-19-9.93-45.13-15.17,37.77-44.16,49.41-95,49.92-97.37a9.37,9.37,0,0,0-11.2-11.22c-2.28.5-50.87,11.51-94.39,46.88v-2.58c0-69.83-35.26-125.64-36.76-128a9.4,9.4,0,0,0-15.83,0c-1.5,2.34-36.76,58.15-36.76,128,0,.86,0,1.73,0,2.58C167.81,205,119.22,194,116.94,193.52a9.4,9.4,0,0,0-11.2,11.22c.51,2.33,12.15,53.21,49.92,97.37-26.09,5.24-44.21,14.69-45.13,15.17a9.4,9.4,0,0,0,0,16.63c1.44.76,35.71,18.65,78.47,18.65,3.61,0,7-.06,10.28-.18a165,165,0,0,0-9.88,23.05,9.41,9.41,0,0,0,11.77,11.82,186.2,186.2,0,0,0,45.44-23.1v37.63a4.7,4.7,0,0,0,4.7,4.71h9.4a4.71,4.71,0,0,0,4.71-4.71V364.16a185.57,185.57,0,0,0,45.44,23.09,9.4,9.4,0,0,0,11.76-11.81,164.79,164.79,0,0,0-9.88-23.06c3.25.13,6.68.18,10.28.18,42.75,0,77-17.88,78.48-18.64a9.41,9.41,0,0,0,0-16.64Z"/></svg>