<svg id="Layer_1" data-name="Layer 1" xmlns="http://www.w3.org/2000/svg" viewBox="0 0 927.77 176.28"><defs><style>.cls-1{fill:#fff;}</style></defs><title>sponsor5</title><g id="Lag_1" data-name="Lag 1"><path id="Path_124" data-name="Path 124" class="cls-1" d="M496.57,538.25h37.11v70.41A14.38,14.38,0,0,0,548.81,625a14.54,14.54,0,0,0,15.47-13.55,15.1,15.1,0,0,0-.08-2.77V538.25h36.94v70.24c0,32.3-20.29,47.34-52.16,47.34s-52.41-15-52.41-47.34Z" transform="translate(-496.57 -529.2)"/><path id="Path_125" data-name="Path 125" class="cls-1" d="M610.61,562.17h34.32l1.52,9.3A36.26,36.26,0,0,1,671.81,560c20.8,0,28.24,11.5,28.24,33.81v59.77H664.2V592.69c0-4.32-1.94-7.27-6.76-7.27A14.93,14.93,0,0,0,646.62,592v61.63h-36Z" transform="translate(-496.57 -529.2)"/><path id="Path_126" data-name="Path 126" class="cls-1" d="M713.32,647a20.72,20.72,0,0,1-4.91-13.19,18.52,18.52,0,0,1,9.73-16.06A29.51,29.51,0,0,1,705.29,593c0-19.78,17.5-33,41.5-33a49.08,49.08,0,0,1,27.39,7.52,50.71,50.71,0,0,1,27.39-6.93v20a65.8,65.8,0,0,0-15.64,1.61,30.06,30.06,0,0,1,2,10.73c0,21.22-19.78,33-41.09,33A54.71,54.71,0,0,1,735,624.81a3.72,3.72,0,0,0-2,3.3c0,2.95,3.47,4.31,19.19,4.31,31.28.5,46.83,9.55,46.83,27.81s-15,28.06-49.62,28.06c-28.91,0-47.85-7.1-47.85-23.41A18.94,18.94,0,0,1,713.32,647Zm22.31,11.49a8.52,8.52,0,0,0-1.86,5.41c0,3.64,3.3,5.5,15.73,5.5,13.78,0,17.58-1.35,17.58-4.65s-1.77-4.57-16.91-4.73A91.14,91.14,0,0,1,735.63,658.45Zm19.45-65.26c0-7.1-2.79-11.75-8.46-11.75s-7.86,4.65-7.86,11.75,3.13,11.33,7.86,11.33S755.08,600,755.08,593.19Z" transform="translate(-496.57 -529.2)"/><path id="Path_127" data-name="Path 127" class="cls-1" d="M838.51,538.25H879l39.3,115.39H878.84L875,639.69H842.4l-3.8,13.95H799ZM849.84,613h17.5l-8.45-31h0Z" transform="translate(-496.57 -529.2)"/><path id="Path_128" data-name="Path 128" class="cls-1" d="M969.37,596.83V594c0-4.9-3.12-6.59-8.45-6.59a72.2,72.2,0,0,0-29.33,9.47l-11.84-24.6a96.76,96.76,0,0,1,43.71-12c30,0,41.33,13.95,41.33,35.42V627c0,3,1.86,4.39,5.33,4.39v22.91c-21.64,0-30.35-1.6-37.28-12.17A33.82,33.82,0,0,1,944.6,656a24.17,24.17,0,0,1-26.27-21.88,23.56,23.56,0,0,1-.1-2.38C917.81,616.27,926.68,601.22,969.37,596.83Zm-9.55,35.25a12.07,12.07,0,0,0,9.55-5.07V613.73c-10.73,1-16.14,5.67-16.14,11.92a6.34,6.34,0,0,0,6.25,6.43Z" transform="translate(-496.57 -529.2)"/><path id="Path_129" data-name="Path 129" class="cls-1" d="M1015.53,529.2h36.1V653.64h-36.1Z" transform="translate(-496.57 -529.2)"/><path id="Path_130" data-name="Path 130" class="cls-1" d="M1060.84,529.2h35.93v42.27a29.38,29.38,0,0,1,23.07-11c19.79,0,33.31,14.79,33.31,47.08s-14.12,47.93-31.61,47.93a34.8,34.8,0,0,1-26.89-11.75l-2.11,9.9h-31.7Zm46.49,100.26c7.78,0,10.57-10.23,10.57-22,0-13.19-2.79-21.05-10.57-21.05a14.72,14.72,0,0,0-10.56,4.73V625A14.53,14.53,0,0,0,1107.33,629.46Z" transform="translate(-496.57 -529.2)"/><path id="Path_131" data-name="Path 131" class="cls-1" d="M1204.46,560.06A45.8,45.8,0,0,1,1252,604c0,1.09,0,2.18,0,3.27,0,30-19.28,48.52-47.6,48.52a45.1,45.1,0,0,1-48-48.52A46,46,0,0,1,1201.1,560Q1202.78,560,1204.46,560.06Zm0,70.41c8.46,0,11.67-8.45,11.67-23s-4.14-22.06-11.67-22.06-12.08,8.45-12.08,22.06,3.63,23.16,12.08,23.16Z" transform="translate(-496.57 -529.2)"/><path id="Path_132" data-name="Path 132" class="cls-1" d="M1258.14,562.17H1292l2.19,12a25.38,25.38,0,0,1,24.86-15,56,56,0,0,1,9,1l-3.55,32.63a48.62,48.62,0,0,0-13.35-1.86,18.1,18.1,0,0,0-16.91,11.92v50.73h-36.1Z" transform="translate(-496.57 -529.2)"/><path id="Path_133" data-name="Path 133" class="cls-1" d="M1336.17,647a20.89,20.89,0,0,1-5-13.19,18.53,18.53,0,0,1,9.72-16.06A29.79,29.79,0,0,1,1328.05,593c0-19.78,17.5-33,41.59-33a49.24,49.24,0,0,1,27.39,7.52,50.7,50.7,0,0,1,27.31-6.93v20a66.85,66.85,0,0,0-15.64,1.61,28.13,28.13,0,0,1,1.94,10.73c0,21.22-19.78,33-41,33a54.91,54.91,0,0,1-11.92-1.18,3.82,3.82,0,0,0-1.94,3.3c0,2.95,3.47,4.31,19.11,4.31,31.36.5,46.83,9.55,46.83,27.81s-15.3,28.06-49.62,28.06c-28.83,0-47.85-7.1-47.85-23.41A18.93,18.93,0,0,1,1336.17,647Zm22.65,11.49a8.48,8.48,0,0,0-1.77,5.41c0,3.64,3.3,5.5,15.64,5.5,13.86,0,17.67-1.35,17.67-4.65s-1.86-4.57-16.91-4.73A92.13,92.13,0,0,1,1358.82,658.45Zm19.45-65.26c0-7.1-2.79-11.75-8.46-11.75s-7.94,4.65-7.94,11.75,3.12,11.33,7.94,11.33,8-4.56,8-11.33Z" transform="translate(-496.57 -529.2)"/><path id="Path_134" data-name="Path 134" class="cls-1" d="M827.19,686.43,823.64,696H819l11.66-30.44H836L847.73,696h-4.57l-3.72-9.56Zm11.15-3-3.29-8.45c-.76-2-1.27-3.81-1.78-5.58h0c-.5,1.77-1.1,3.63-1.77,5.49l-3.38,8.46Z" transform="translate(-496.57 -529.2)"/><path id="Path_135" data-name="Path 135" class="cls-1" d="M866.33,696v-2.71h0a9.52,9.52,0,0,1-7.53,3.21,6.68,6.68,0,0,1-7.48-5.76c0-.17,0-.33,0-.49,0-5.33,5.32-8.45,14.79-8.45v-.43c0-1.77-.59-5.07-5.58-5.07a14.39,14.39,0,0,0-6.42,1.61l-1-2.62a17.76,17.76,0,0,1,8.46-1.95,8.45,8.45,0,0,1,9.27,7.55,8.3,8.3,0,0,1,0,1.41v8.46a30.56,30.56,0,0,0,0,5.24Zm-.68-11.16c-4.82,0-10.4.67-10.4,4.9a3.81,3.81,0,0,0,3.7,3.91,3.17,3.17,0,0,0,.53,0,6.1,6.1,0,0,0,5.92-3.72,3.39,3.39,0,0,0,0-1.27Z" transform="translate(-496.57 -529.2)"/><path id="Path_136" data-name="Path 136" class="cls-1" d="M877,663.86h4.48V696H877Z" transform="translate(-496.57 -529.2)"/><path id="Path_137" data-name="Path 137" class="cls-1" d="M888.9,696q.14-2.84,0-5.67V663.86h5v13.78h0a9.57,9.57,0,0,1,8.46-4,10.21,10.21,0,0,1,10.44,10,8.57,8.57,0,0,1,0,1.24,10.89,10.89,0,0,1-10.11,11.64,8.42,8.42,0,0,1-.87,0,9.15,9.15,0,0,1-8.46-4h0V696Zm4.65-8.46a8.65,8.65,0,0,0,0,1.44,6.93,6.93,0,0,0,6.76,4.65,7.44,7.44,0,0,0,7.51-7.37,7.83,7.83,0,0,0-.07-1.08,7.36,7.36,0,0,0-6.18-8.37,6.68,6.68,0,0,0-1.09-.09,7.11,7.11,0,0,0-6.6,4.65,8.66,8.66,0,0,0,0,1.61Z" transform="translate(-496.57 -529.2)"/><path id="Path_138" data-name="Path 138" class="cls-1" d="M940.29,684.91a11.32,11.32,0,0,1-11,11.65,10.65,10.65,0,0,1-1.6-.07,11.06,11.06,0,0,1-11.81-10.28q0-.48,0-1a11.33,11.33,0,0,1,10.95-11.69,10.1,10.1,0,0,1,1.23,0,11.06,11.06,0,0,1,12.19,9.82A9.41,9.41,0,0,1,940.29,684.91Zm-19.52,0a7.52,7.52,0,1,0,14.87,2.25,7.08,7.08,0,0,0,0-2.25,7.52,7.52,0,0,0-14.87-2.25A7.08,7.08,0,0,0,920.77,684.91Z" transform="translate(-496.57 -529.2)"/><path id="Path_139" data-name="Path 139" class="cls-1" d="M945.87,681.36v-6.84h4v4.31h0a7.25,7.25,0,0,1,6.76-4.82h1.27v3.72h-1.44a6,6,0,0,0-6,5.07,11.55,11.55,0,0,0,0,1.86v11.67H946Z" transform="translate(-496.57 -529.2)"/><path id="Path_140" data-name="Path 140" class="cls-1" d="M983.24,674.09a56.24,56.24,0,0,0,0,6.09v12.68a11.76,11.76,0,0,1-3.47,10,13.81,13.81,0,0,1-9,2.62,17.39,17.39,0,0,1-8.45-1.77l1.1-3a15.39,15.39,0,0,0,7.27,1.69,6.94,6.94,0,0,0,7.86-7.61v-2.45h0a9,9,0,0,1-7.78,3.63,10.22,10.22,0,0,1-10.49-10c0-.23,0-.46,0-.69a11.07,11.07,0,0,1,10.46-11.65h.61a8.43,8.43,0,0,1,7.69,3.8h0v-3.3Zm-4.65,8.46a6.83,6.83,0,0,0-.17-1.19,6.49,6.49,0,0,0-6.26-4.22,7.42,7.42,0,0,0-7.42,7.45,6.73,6.73,0,0,0,.07,1,7.09,7.09,0,0,0,6.29,7.82,6.43,6.43,0,0,0,1,0,6.58,6.58,0,0,0,6.25-4.06,5.76,5.76,0,0,0,0-2.11Z" transform="translate(-496.57 -529.2)"/><path id="Path_141" data-name="Path 141" class="cls-1" d="M1005.72,665.55v18c0,6.85,3.38,9.72,7.95,9.72s8.45-3,8.45-9.72v-18h4.4v17.76a11.76,11.76,0,0,1-10.15,13.16,14.19,14.19,0,0,1-15.13-10.19,10.94,10.94,0,0,1,.09-2.8V665.55Z" transform="translate(-496.57 -529.2)"/><path id="Path_142" data-name="Path 142" class="cls-1" d="M1034,680v-5.92h3.63v3.64h0a9.62,9.62,0,0,1,8.46-4.14,8.45,8.45,0,0,1,8.5,8.4,8,8,0,0,1,0,1v13H1050v-12.6c0-3.55-1.44-6.42-5.66-6.42a5.74,5.74,0,0,0-6.24,5.21,5.51,5.51,0,0,0,0,.7V696h-4.48Z" transform="translate(-496.57 -529.2)"/><path id="Path_143" data-name="Path 143" class="cls-1" d="M1083.24,674.09v18.77a11.73,11.73,0,0,1-3.38,10,14.06,14.06,0,0,1-9,2.62,16.8,16.8,0,0,1-8.45-1.77l1.09-3a15,15,0,0,0,7.27,1.69,6.94,6.94,0,0,0,7.87-7.61v-2.45h0a9,9,0,0,1-7.78,3.63,10.22,10.22,0,0,1-10.49-10c0-.23,0-.46,0-.69a11.07,11.07,0,0,1,10.46-11.65h.53a8.44,8.44,0,0,1,7.69,3.8h0v-3.3Zm-4.56,8.46a7.24,7.24,0,0,0,0-1.86,6.52,6.52,0,0,0-6.26-4.23,7.44,7.44,0,0,0-7.42,7.45,6.63,6.63,0,0,0,.07,1,7.1,7.1,0,0,0,6.29,7.83,8,8,0,0,0,1,0,6.34,6.34,0,0,0,6.17-4,4.74,4.74,0,0,0,0-2.12Z" transform="translate(-496.57 -529.2)"/><path id="Path_144" data-name="Path 144" class="cls-1" d="M1111.64,663.86v26.46q-.14,2.83,0,5.67h-4.05v-3.81h0a9.48,9.48,0,0,1-8.46,4.31,10.39,10.39,0,0,1-10.83-9.94,10.65,10.65,0,0,1,0-1.13,11,11,0,0,1,10.11-11.8,7.86,7.86,0,0,1,1,0,8.43,8.43,0,0,1,7.35,3.38h0V663.86Zm-4.48,19.19a5.32,5.32,0,0,0,0-1.69,6.51,6.51,0,0,0-6.42-4.65,7.52,7.52,0,0,0-7.41,7.64,5.76,5.76,0,0,0,.06.82,7.18,7.18,0,0,0,7.27,8.45,6.59,6.59,0,0,0,6.5-4.73,5.32,5.32,0,0,0,0-1.69Z" transform="translate(-496.57 -529.2)"/><path id="Path_145" data-name="Path 145" class="cls-1" d="M1141.32,684.91a11.33,11.33,0,0,1-11,11.62,10,10,0,0,1-1.22,0,11.06,11.06,0,0,1-11.81-10.28q0-.48,0-1a11.42,11.42,0,0,1,11.13-11.69,10.66,10.66,0,0,1,1.13,0,11,11,0,0,1,11.81,10.1C1141.32,684.1,1141.33,684.51,1141.32,684.91Zm-19.53,0a7.52,7.52,0,1,0,15,1.6,7.13,7.13,0,0,0,0-1.6,7.52,7.52,0,0,0-15-1.59A7,7,0,0,0,1121.79,684.91Z" transform="translate(-496.57 -529.2)"/><path id="Path_146" data-name="Path 146" class="cls-1" d="M1146.9,680v-5.92h3.88v3.55h0a8.44,8.44,0,0,1,7.7-4,7.42,7.42,0,0,1,7,4.39h0a9.36,9.36,0,0,1,2.71-2.79,9.17,9.17,0,0,1,5.49-1.6,8.45,8.45,0,0,1,8.53,8.38,9.18,9.18,0,0,1-.07,1.17V696h-4.31V683.64c0-4.22-1.78-6.76-5.33-6.76a5.76,5.76,0,0,0-5.33,3.64,7,7,0,0,0,0,1.94V696h-4.39V682.88c0-3.46-1.69-6-5.16-6a5.91,5.91,0,0,0-5.49,4,4.87,4.87,0,0,0,0,1.94V696h-4.4Z" transform="translate(-496.57 -529.2)"/><path id="Path_147" data-name="Path 147" class="cls-1" d="M1188.57,691.93a13.08,13.08,0,0,0,5.92,1.61c3.21,0,4.73-1.44,4.73-3.3s-1.27-2.88-4.56-4-6.51-3.55-6.51-6.26a7.88,7.88,0,0,1,8.45-6.42,14,14,0,0,1,6,1.35l-1.1,3a9.56,9.56,0,0,0-5-1.27c-2.71,0-4.14,1.35-4.14,3s1.43,2.62,4.64,3.72,6.51,3.38,6.51,6.59-3.38,6.59-9.21,6.59a14.84,14.84,0,0,1-6.93-1.52Z" transform="translate(-496.57 -529.2)"/><path id="Path_148" data-name="Path 148" class="cls-1" d="M1208.69,691.93a12.65,12.65,0,0,0,5.92,1.61c3.21,0,4.73-1.44,4.73-3.3s-1.27-2.88-4.56-4-6.51-3.55-6.51-6.26a7.88,7.88,0,0,1,8.45-6.42,14.1,14.1,0,0,1,6.09,1.35l-1.1,3a10.1,10.1,0,0,0-5.07-1.27c-2.62,0-4.15,1.35-4.15,3s1.53,2.62,4.74,3.72,6.42,3.38,6.42,6.59-3.38,6.59-9.21,6.59a14.54,14.54,0,0,1-6.85-1.52Z" transform="translate(-496.57 -529.2)"/><path id="Path_149" data-name="Path 149" class="cls-1" d="M1233.8,684.15h0c.59-.76,1.52-1.69,2.2-2.45l7.18-7.61h5.75l-9.47,9L1250.28,696h-5.49l-8.46-10.49-2.28,2.29v8.45h-4.4V664.12h4.4Z" transform="translate(-496.57 -529.2)"/><path id="Path_150" data-name="Path 150" class="cls-1" d="M1275.39,684.91a11.33,11.33,0,0,1-11,11.62,10.11,10.11,0,0,1-1.23,0,11,11,0,0,1-11.73-10.19c0-.35,0-.7,0-1a11.33,11.33,0,0,1,10.95-11.69,9.89,9.89,0,0,1,1.22,0,11,11,0,0,1,11.81,10.1C1275.39,684.1,1275.4,684.51,1275.39,684.91Zm-19.44,0a7.68,7.68,0,0,0,6.89,8.42l.54,0a7.78,7.78,0,0,0,7.47-8.08l0-.38a7.52,7.52,0,0,0-14.87-2.25A7.08,7.08,0,0,0,1256,684.91Z" transform="translate(-496.57 -529.2)"/><path id="Path_151" data-name="Path 151" class="cls-1" d="M1281,663.86h4.48V696H1281Z" transform="translate(-496.57 -529.2)"/><path id="Path_152" data-name="Path 152" class="cls-1" d="M1295.51,685.76a7.44,7.44,0,0,0,7.19,7.67,7.6,7.6,0,0,0,1.26-.06,19.26,19.26,0,0,0,6.85-1.1l.76,2.87a23.18,23.18,0,0,1-8.45,1.35,10.82,10.82,0,0,1-11.87-9.66,9.5,9.5,0,0,1,0-1.41,11.16,11.16,0,0,1,10.45-11.82,9,9,0,0,1,1,0,9.72,9.72,0,0,1,10.24,9.18,8.54,8.54,0,0,1,0,1.13,8.26,8.26,0,0,1,0,1.86Zm13.1-2.79a6,6,0,0,0-5.47-6.49,5.18,5.18,0,0,0-.79,0,7,7,0,0,0-6.84,6.51Z" transform="translate(-496.57 -529.2)"/></g></svg>