<svg id="Layer_1" data-name="Layer 1" xmlns="http://www.w3.org/2000/svg" xmlns:xlink="http://www.w3.org/1999/xlink" viewBox="0 0 743.09 144.57"><defs><style>.cls-1{fill:none;}.cls-2{clip-path:url(#clip-path);}.cls-3{fill:#fff;}</style><clipPath id="clip-path" transform="translate(-588.91 -531.93)"><rect class="cls-1" x="588.91" y="531.93" width="743.09" height="144.57"/></clipPath></defs><title>sponsor2</title><g id="Lag_1" data-name="Lag 1"><g id="Artwork_1" data-name="Artwork 1"><g class="cls-2"><g id="Group_8" data-name="Group 8"><g id="Group_7" data-name="Group 7"><path id="Path_97" data-name="Path 97" class="cls-3" d="M1332,531.93H588.91V676.5H1332ZM693,554.35l-13.7,99.54H660.49l8.16-49.35-18.11,32H646.7l-7.22-31.8-10,49.16H610.77l20.36-99.54h10l13.42,49.54,28.14-49.82Zm68.2,0-12.76,72a38.07,38.07,0,0,1-10.51,22.23,28.17,28.17,0,0,1-19.79,7,34.12,34.12,0,0,1-9.38-1.22A23.54,23.54,0,0,1,701,650.6a19.1,19.1,0,0,1-5.16-6.66,22.89,22.89,0,0,1-1.88-9.38V631l.56-3.94,13-72.43h18.76l-12.57,72.8v2.07a14.66,14.66,0,0,0,0,2.81,7.69,7.69,0,0,0,1.22,4.32,6,6,0,0,0,5.35,2,6.74,6.74,0,0,0,6.28-3.29,23,23,0,0,0,2.72-7.78l13.14-73.18Zm53.47,5.35-7,16.32A21.22,21.22,0,0,0,794,569.46a9,9,0,0,0-9.81,8.17,8.24,8.24,0,0,0,0,1.11,17,17,0,0,0,3,9.39q3,4.85,6.56,9.38c1.41,1.87,2.82,3.94,4.22,6a53.59,53.59,0,0,1,3.85,6.85,52.47,52.47,0,0,1,2.82,7.5,28.24,28.24,0,0,1,1.12,8.07,35.15,35.15,0,0,1-1.88,11.45,28.1,28.1,0,0,1-5.53,9.38,24.15,24.15,0,0,1-8.82,6.19,31.13,31.13,0,0,1-12.29,2.25,39.57,39.57,0,0,1-13.41-2.44,43.35,43.35,0,0,1-12-6.57l6-16.32a64.17,64.17,0,0,0,9.38,6.19,18.76,18.76,0,0,0,9.39,2.54,10,10,0,0,0,7.31-2.91,10.52,10.52,0,0,0,3-8,17.47,17.47,0,0,0-2.81-9.38c-2-3-4.13-6.19-6.57-9.38a69.59,69.59,0,0,1-4.22-6.1,66.77,66.77,0,0,1-3.94-6.75,47,47,0,0,1-2.81-7.41,30.52,30.52,0,0,1-1.13-8.45,29.77,29.77,0,0,1,1.78-10.78,25.53,25.53,0,0,1,6.29-9.38,24.91,24.91,0,0,1,8.82-5.45,33.59,33.59,0,0,1,23.45.29,45.79,45.79,0,0,1,8.91,4.59m31.71-5.35-18,99.73H809l18-99.54Zm67.73,0-28.14,49.16,10.79,50.57H876.35L868.1,607l-8.54,46.91H840.33l18-99.54h19.23l-8.07,44.47,23.74-44.47Zm48.22,5.92-7,15.94a21.22,21.22,0,0,0-13.7-6.56,9,9,0,0,0-9.73,8.23,9.21,9.21,0,0,0,0,1,16.9,16.9,0,0,0,2.91,9.39,114.34,114.34,0,0,0,6.57,9.38l4.32,6a54.76,54.76,0,0,1,3.84,6.85,51.28,51.28,0,0,1,2.72,7.5,27.9,27.9,0,0,1,1.13,8.07,33.07,33.07,0,0,1-1.88,11.45,28.13,28.13,0,0,1-5.44,9.38,24.94,24.94,0,0,1-8.82,6.19,31.49,31.49,0,0,1-12.29,2.25,39.33,39.33,0,0,1-13.41-2.44,42.2,42.2,0,0,1-12-6.57l6.38-16.69a69.42,69.42,0,0,0,8.91,6.19,18.74,18.74,0,0,0,9.38,2.53,10.2,10.2,0,0,0,7.32-2.91,10.5,10.5,0,0,0,3-8,16.69,16.69,0,0,0-2.91-9.38c-1.87-3-4-6.19-6.47-9.38a68.93,68.93,0,0,1-4.22-6.1,44.22,44.22,0,0,1-3.57-6.1,46.67,46.67,0,0,1-2.9-7.41,30.47,30.47,0,0,1-1-8.44,29.82,29.82,0,0,1,1.88-11.07,26.81,26.81,0,0,1,5.82-9.38,26.1,26.1,0,0,1,9.38-5.45,33.34,33.34,0,0,1,23.36.29,45.05,45.05,0,0,1,9.38,4.59m57.32-5.16-3,17.55h-15l-15.2,82H968l14.91-82H968l3-17.55Zm46.9,99.54h-18.76l-.66-16.61h-17.54l-6.57,16.61h-18.76l41.37-99.82H1062Zm72.33-73.74a39,39,0,0,1-1.12,9.38,43.81,43.81,0,0,1-3.19,8.91,44.44,44.44,0,0,1-5.35,7.88,32.83,32.83,0,0,1-7.22,6.29l4.69,41.28h-20l-2.63-35.46h-5.44L1093,653.89H1074.2l17.83-98.6,7.31-1.41a76.39,76.39,0,0,1,10.14-.65,37.64,37.64,0,0,1,13.22,2.15,28.13,28.13,0,0,1,9.38,5.63,21.74,21.74,0,0,1,5.73,8.54,28,28,0,0,1,1.87,10.6m60.42-26-3.1,17.55h-15l-15.29,82.18h-19.23l14.92-82.18h-14.92l3-17.55Zm51.78,0-3.19,17.45h-24.58l-4,22.61h20.64l-3.1,16.8h-20.17l-4.59,25.51h23.36l-2.72,17.36h-43.44l18-99.54Zm57.51,26a40.55,40.55,0,0,1-4.41,18.2,39.61,39.61,0,0,1-5.25,7.88,35.84,35.84,0,0,1-7.23,6.29l4.69,41.37h-20l-2.62-35.65h-5.54l-6.38,35.65h-18.76l17.82-98.6,7.32-1.41a76.24,76.24,0,0,1,10.13-.65,37.66,37.66,0,0,1,13.23,2.15,28.23,28.23,0,0,1,9.38,5.63,22.89,22.89,0,0,1,5.72,8.54,28,28,0,0,1,1.88,10.6m-20.54,9.38a29,29,0,0,0,1.12-8.07,11.68,11.68,0,0,0-2.63-8.16,8.82,8.82,0,0,0-7.13-3h-2.06L1271.87,603h1a14.24,14.24,0,0,0,6.85-1.69,20.79,20.79,0,0,0,5.25-4.69,22.36,22.36,0,0,0,3.47-6.85m-169.71,0a28.6,28.6,0,0,0,1.13-8.07,11.68,11.68,0,0,0-2.63-8.16,8.81,8.81,0,0,0-7.13-3h-2.06l-5.91,32.08h1a14,14,0,0,0,6.85-1.69,19.27,19.27,0,0,0,5.25-4.69,22.25,22.25,0,0,0,3.47-6.85m-81.9,31.53h10.32V591.78Z" transform="translate(-588.91 -531.93)"/></g></g></g></g></g></svg>