<svg id="Layer_1" data-name="Layer 1" xmlns="http://www.w3.org/2000/svg" viewBox="0 0 877.83 110.56"><defs><style>.cls-1{fill:#fff;}</style></defs><title>sponsor4</title><g id="Layer_2" data-name="Layer 2"><g id="Lag_1" data-name="Lag 1"><path id="Path_98" data-name="Path 98" class="cls-1" d="M546.41,581.85l-24.87-41.5V643.14h24.87Z" transform="translate(-521.54 -532.81)"/><path id="Path_99" data-name="Path 99" class="cls-1" d="M610.52,643.14l-65-109.25H521.86l65,109.16Z" transform="translate(-521.54 -532.81)"/><path id="Path_100" data-name="Path 100" class="cls-1" d="M585.81,595.09l24.87,41.51V533.81H585.81Z" transform="translate(-521.54 -532.81)"/><path id="Path_101" data-name="Path 101" class="cls-1" d="M668.65,533.25a49.08,49.08,0,0,0-34.72,16.14,56.63,56.63,0,0,0-.16,77.68,48.48,48.48,0,0,0,34.72,16.15v-20a24.7,24.7,0,0,1-16.15-10.17,41.73,41.73,0,0,1,0-49.33,24.25,24.25,0,0,1,16.15-10.1Z" transform="translate(-521.54 -532.81)"/><path id="Path_102" data-name="Path 102" class="cls-1" d="M672.61,643.14A49.5,49.5,0,0,0,707.81,627a56.08,56.08,0,0,0,0-77.6,49.74,49.74,0,0,0-35.2-16.14v20.26a24.24,24.24,0,0,1,18.49,10.26,41.73,41.73,0,0,1,0,49.33,23.65,23.65,0,0,1-18.17,10.25Z" transform="translate(-521.54 -532.81)"/><rect id="Rectangle_27" data-name="Rectangle 27" class="cls-1" x="209.28" y="0.76" width="24.87" height="109.57"/><path id="Path_103" data-name="Path 103" class="cls-1" d="M808.74,590.57a36.07,36.07,0,0,0,7.43-22.44v-1.46a37.44,37.44,0,0,0-7-21.47,39.21,39.21,0,0,0-32.29-12h-17.2V552.7h17.52a14.14,14.14,0,0,1,14.05,12.84v1.86a15.42,15.42,0,0,1-11.3,15.34H759.65V602.6A92.62,92.62,0,0,1,782,604.14a12.73,12.73,0,0,1,6.3,8.07,192.55,192.55,0,0,0,3.88,21.72c2,6.22,3.55,9.37,4.68,9.45h26a23,23,0,0,1-4.68-7.27,125.26,125.26,0,0,1-4.28-19.62l-.73-4a23.57,23.57,0,0,0-2-9.68,30.53,30.53,0,0,0-5.57-8.64A20.59,20.59,0,0,0,808.74,590.57Z" transform="translate(-521.54 -532.81)"/><rect id="Rectangle_28" data-name="Rectangle 28" class="cls-1" x="307.95" y="0.76" width="24.87" height="109.57"/><path id="Path_104" data-name="Path 104" class="cls-1" d="M889.89,609.55a13.9,13.9,0,0,1-14,13.08H858.32v20.18h17.52a38.42,38.42,0,0,0,32.29-12.43,39.88,39.88,0,0,0,7-22.29V567.72a39.88,39.88,0,0,0-7-22.28A38.42,38.42,0,0,0,875.84,533H858.32v20.43h17.52a13.9,13.9,0,0,1,14,13.08Z" transform="translate(-521.54 -532.81)"/><rect id="Rectangle_29" data-name="Rectangle 29" class="cls-1" x="401.21" y="1" width="25.27" height="109.32"/><path id="Path_105" data-name="Path 105" class="cls-1" d="M951.41,570.63v27.13l38.84,45.38H1020v-.41l-51.91-59.34,49.65-49.26v-.32H986Z" transform="translate(-521.54 -532.81)"/><rect id="Rectangle_30" data-name="Rectangle 30" class="cls-1" x="506.49" y="0.76" width="24.87" height="109.57"/><path id="Path_106" data-name="Path 106" class="cls-1" d="M1106,590.57a36,36,0,0,0,7.35-22.44v-1.46a37.51,37.51,0,0,0-7-21.47,38.91,38.91,0,0,0-32.3-12h-17.2V552.7h17.6a14,14,0,0,1,14,12.84v1.86a15.42,15.42,0,0,1-11.63,15.42h-19.94V602.6a93.9,93.9,0,0,1,22.45,1.54,13.3,13.3,0,0,1,6.29,8.07,192.55,192.55,0,0,0,3.88,21.72q3.07,9.36,4.6,9.45h26a24.36,24.36,0,0,1-4.6-7.27,115.6,115.6,0,0,1-4.52-19.86l-.81-4a24.11,24.11,0,0,0-1.94-9.69,30.61,30.61,0,0,0-5.33-8.64A29.69,29.69,0,0,0,1106,590.57Z" transform="translate(-521.54 -532.81)"/><path id="Path_107" data-name="Path 107" class="cls-1" d="M1158.51,533.81l-31.73,93.5v15.83h22L1172.48,559h.41l11.3,40.29v.41h-18.65l-5.81,20.18H1190l7.27,23.26h28.26l-38.67-109.33Z" transform="translate(-521.54 -532.81)"/><rect id="Rectangle_31" data-name="Rectangle 31" class="cls-1" x="708.83" y="0.76" width="24.87" height="109.57"/><rect id="Rectangle_32" data-name="Rectangle 32" class="cls-1" x="737.98" y="1" width="51.27" height="20.1"/><rect id="Rectangle_33" data-name="Rectangle 33" class="cls-1" x="738.14" y="42.34" width="47.07" height="20.1"/><rect id="Rectangle_34" data-name="Rectangle 34" class="cls-1" x="796.36" y="1.16" width="81.47" height="20.1"/><rect id="Rectangle_35" data-name="Rectangle 35" class="cls-1" x="825.26" y="25.38" width="24.87" height="84.7"/></g></g></svg>