<svg id="Layer_1" data-name="Layer 1" xmlns="http://www.w3.org/2000/svg" xmlns:xlink="http://www.w3.org/1999/xlink" viewBox="0 0 719.09 275.77"><defs><style>.cls-1{fill:none;}.cls-2{clip-path:url(#clip-path);}.cls-3{fill:#fff;}</style><clipPath id="clip-path" transform="translate(-600.91 -516.37)"><rect class="cls-1" x="600.91" y="516.37" width="719.09" height="275.63"/></clipPath></defs><title>sponsor3</title><g class="cls-2"><g id="Group_10" data-name="Group 10"><g id="Group_9" data-name="Group 9"><path id="Path_108" data-name="Path 108" class="cls-3" d="M888.83,571.58h0" transform="translate(-600.91 -516.37)"/><path id="Path_109" data-name="Path 109" class="cls-3" d="M1047.57,529.84h-2.19a91.07,91.07,0,0,1-49.87,40c-41.26,13.24-87-9.68-116.06-53.43h-4c-4.86,56.51-37.1,104.42-85.84,137.55v3c15.5-5.47,38.47-4.52,49.57,2.19,17.81,10.81,27.07,33.25,27.49,61.21h4.21c17.81-72.84,69-124.67,128.29-120.22,48.38,3.45,80.68,32.83,97.89,87.74h2.5a47,47,0,0,1,27.54-17.51v-1.9c-36.15-26.18-72.9-81.57-79.55-138.56" transform="translate(-600.91 -516.37)"/><path id="Path_110" data-name="Path 110" class="cls-3" d="M600.91,730.08h21.31a21,21,0,0,1,21.31,20.72v.06A20.45,20.45,0,0,1,635.7,767l10.92,23.74H628.4l-8.49-19.53h-2.26v19.95H600.91Zm16.74,14.84V756.8h3.8a5.58,5.58,0,0,0,5.29-5.86v-.08a5.94,5.94,0,0,0-5.28-5.94Z" transform="translate(-600.91 -516.37)"/><path id="Path_111" data-name="Path 111" class="cls-3" d="M648.4,760.89c0-24.87,10.75-31.4,23.75-31.4s23.74,6.47,23.74,31.4S685.33,792,672.15,792s-23.75-6.41-23.75-31.11m30.34,0c0-13.89-3.68-16.44-6.83-16.44s-6.83,2.55-6.83,16.44,3.63,16.27,6.83,16.27,6.83-2.55,6.83-16.27" transform="translate(-600.91 -516.37)"/><path id="Path_112" data-name="Path 112" class="cls-3" d="M716.32,770.33c0,5,1.72,6.47,4,6.47a3.86,3.86,0,0,0,4-3.67v-.25c0-3-3.56-4.39-7.36-5.93-6.59-2.55-16.33-6.47-16.33-18.17a19.35,19.35,0,0,1,19.41-19.3h.54a18.52,18.52,0,0,1,19.24,17.77c0,.53,0,1.06,0,1.58H724c0-3.32-1.18-5.1-3.5-5.1a3.25,3.25,0,0,0-3.32,3.2v.12c0,2.38,3,3.68,7.24,5.46,7.12,3.09,16.86,7.24,16.86,19.12a20.3,20.3,0,0,1-20.11,20.49c-.32,0-.64,0-1,0a19.65,19.65,0,0,1-20.55-18.7,20.87,20.87,0,0,1,.07-2.85Z" transform="translate(-600.91 -516.37)"/><path id="Path_113" data-name="Path 113" class="cls-3" d="M778.23,754.48l16.21,36.69H776.1l-8.49-22.62-4,6.29v16.33H746.89v-61h16.68v22.68l12.65-22.68h17Z" transform="translate(-600.91 -516.37)"/><rect id="Rectangle_36" data-name="Rectangle 36" class="cls-3" x="197.15" y="213.83" width="16.74" height="60.97"/><path id="Path_114" data-name="Path 114" class="cls-3" d="M860.34,791.17H823.65v-61h16.68v46.19h20Z" transform="translate(-600.91 -516.37)"/><path id="Path_115" data-name="Path 115" class="cls-3" d="M887.76,730.08c13.66,0,23.75,6.47,23.75,30.58s-9.8,30.39-23.75,30.39H866.27v-61ZM883,744.92v31.47h4.75c4.22,0,6.77-2.73,6.77-15.62S892,745,887.76,745Z" transform="translate(-600.91 -516.37)"/><path id="Path_116" data-name="Path 116" class="cls-3" d="M957.4,791.17h-40v-61h38.4V745H934.13v8.25h15v14h-15v9.09H957.4Z" transform="translate(-600.91 -516.37)"/><path id="Path_117" data-name="Path 117" class="cls-3" d="M1017.18,768.73H999.55v22.44H982.81v-61h39.3V745H999.55v9.62h17.63Z" transform="translate(-600.91 -516.37)"/><path id="Path_118" data-name="Path 118" class="cls-3" d="M1067.76,791.17h-40v-61h38.35V745h-21.66v8.25h15v14h-15v9.09h23.27Z" transform="translate(-600.91 -516.37)"/><path id="Path_119" data-name="Path 119" class="cls-3" d="M1087.29,770.33c0,5,1.72,6.47,4,6.47a3.85,3.85,0,0,0,4.08-3.61c0-.1,0-.2,0-.31,0-3-3.56-4.39-7.42-5.93-6.53-2.55-16.27-6.47-16.27-18.17a19.35,19.35,0,0,1,19.41-19.3h.54a18.52,18.52,0,0,1,19.18,17.84c0,.5,0,1,0,1.51H1095c0-3.32-1.19-5.1-3.51-5.1a3.25,3.25,0,0,0-3.32,3.2v.12c0,2.38,3,3.68,7.24,5.46,7.36,3.09,16.8,7.24,16.8,19A20.3,20.3,0,0,1,1092.05,792h-.9a19.65,19.65,0,0,1-20.56-18.7,19.39,19.39,0,0,1,.08-2.85Z" transform="translate(-600.91 -516.37)"/><path id="Path_120" data-name="Path 120" class="cls-3" d="M1113.47,730.2h42.92V745h-13.06v46.13h-16.74V745h-13.12Z" transform="translate(-600.91 -516.37)"/><rect id="Rectangle_37" data-name="Rectangle 37" class="cls-3" x="561.47" y="213.83" width="16.74" height="60.97"/><path id="Path_121" data-name="Path 121" class="cls-3" d="M1233.62,730.2l-16.68,61h-16l-16.44-61h16.8l7.66,35.38,7.71-35.38Z" transform="translate(-600.91 -516.37)"/><path id="Path_122" data-name="Path 122" class="cls-3" d="M1259.15,782.26h-11.87l-1.73,8.91h-17.8l16.68-61.09h17.45l16.74,61h-17.81Zm-9.2-14.07h6.41l-3.27-16.2Z" transform="translate(-600.91 -516.37)"/><path id="Path_123" data-name="Path 123" class="cls-3" d="M1320,791.17h-36.69v-61h16.74v46.19h20Z" transform="translate(-600.91 -516.37)"/></g></g></g></svg>