<svg id="Layer_1" data-name="Layer 1" xmlns="http://www.w3.org/2000/svg" viewBox="0 0 529.16 158.69"><defs><style>.cls-1{fill:#fff;}</style></defs><title>sponsor1</title><g id="Lag_1" data-name="Lag 1"><path id="Path_78" data-name="Path 78" class="cls-1" d="M893.28,546.72h15.53l17.91,51.34h-15l-2.33-7.61H892.81l-2.27,7.61H875.32ZM896,580h10.35l-5.17-16.77h0Z" transform="translate(-695.87 -524.31)"/><path id="Path_79" data-name="Path 79" class="cls-1" d="M972.52,542.68h13.87v55.38H972.52Z" transform="translate(-695.87 -524.31)"/><path id="Path_80" data-name="Path 80" class="cls-1" d="M993.12,542.68H1007v19.46a14,14,0,0,1,10.71-5.17c9,0,15,6.67,15,20.7s-6.32,21.22-14.55,21.22a15.5,15.5,0,0,1-11.9-5.17l-.88,4.5H993.12Zm20,46.07c4.14,0,6-4.77,6-11.08s-1.82-10.35-6-10.35a8.37,8.37,0,0,0-6.1,2.95V585.8A8,8,0,0,0,1013.1,588.75Z" transform="translate(-695.87 -524.31)"/><path id="Path_81" data-name="Path 81" class="cls-1" d="M1056.84,557a19.86,19.86,0,0,1,20.7,19,15.88,15.88,0,0,1,0,1.69,20.7,20.7,0,1,1-41.4,0,19.87,19.87,0,0,1,19-20.7A15.88,15.88,0,0,1,1056.84,557Zm0,32c4.5,0,6.78-4.4,6.78-11.34S1061,567,1056.84,567s-6.78,4.24-6.78,10.76S1052.34,589.06,1056.84,589.06Z" transform="translate(-695.87 -524.31)"/><path id="Path_82" data-name="Path 82" class="cls-1" d="M1082.41,558h12.89l.82,5.64a11.59,11.59,0,0,1,11.13-6.88,17.13,17.13,0,0,1,4.4.57l-1.71,12.57a16.84,16.84,0,0,0-5.64-.82,9.09,9.09,0,0,0-8.12,6v23h-13.77Z" transform="translate(-695.87 -524.31)"/><path id="Path_83" data-name="Path 83" class="cls-1" d="M1117.24,595.06a8.36,8.36,0,0,1-2.12-5.64,7.87,7.87,0,0,1,4.24-6.88,13.23,13.23,0,0,1-5.74-11c0-8.75,7.66-14.49,17.91-14.49a20.64,20.64,0,0,1,11.59,3.52,19.73,19.73,0,0,1,11.7-3.26v8a29.49,29.49,0,0,0-6.94.72,13.47,13.47,0,0,1,1.14,5.49c0,9.37-8.54,14.6-17.65,14.6a21.88,21.88,0,0,1-5.64-.68,2.1,2.1,0,0,0-1.09,1.76c0,1.61,1.82,2.23,9.37,2.33,13,.31,19.67,4,19.67,11.91s-6.62,12-21.27,12c-12.63,0-20.71-3.27-20.71-10.36A8.65,8.65,0,0,1,1117.24,595.06Zm8.54,4.4a4.13,4.13,0,0,0-1.45,3.21c0,2.07,2,3.11,8.08,3.11s8.95-.83,8.95-2.75-1.4-2.64-8.28-2.79A40.75,40.75,0,0,1,1125.78,599.46Zm10.35-27.9c0-3.62-1.81-6-5.17-6s-5.18,2.43-5.18,6,2,6,5.18,6a5.3,5.3,0,0,0,5.33-6Z" transform="translate(-695.87 -524.31)"/><path id="Path_84" data-name="Path 84" class="cls-1" d="M940.07,619.44a19.86,19.86,0,0,1,20.7,19,15.88,15.88,0,0,1,0,1.69,20.7,20.7,0,1,1-41.4,0,19.87,19.87,0,0,1,19-20.7C938.94,619.42,939.51,619.42,940.07,619.44Zm0,32c4.45,0,6.73-4.4,6.73-11.28s-2.54-10.77-6.73-10.77-6.83,4.24-6.83,10.77S935.52,651.48,940.07,651.48Z" transform="translate(-695.87 -524.31)"/><path id="Path_85" data-name="Path 85" class="cls-1" d="M965.64,620.37h13.2l.52,3.88a18,18,0,0,1,11.12-4.81,10.35,10.35,0,0,1,10.36,5.43,18,18,0,0,1,12.57-5.43c8.28,0,12.17,5.43,12.17,14.39v26.65h-14V633.41c0-2.69-1.19-4.08-3.31-4.08a8.49,8.49,0,0,0-5.9,3.2v28H988.67V633.41c0-2.74-1.14-4.08-3.31-4.08a7.79,7.79,0,0,0-6,3.52v27.63H965.64Z" transform="translate(-695.87 -524.31)"/><path id="Path_86" data-name="Path 86" class="cls-1" d="M1032.31,620.37h13.19l.52,3.88a18,18,0,0,1,11.13-4.81,10.35,10.35,0,0,1,10.35,5.43,18,18,0,0,1,12.58-5.43c8.33,0,12.21,5.43,12.21,14.39v26.65h-14.18V633.41c0-2.69-1.14-4.08-3.31-4.08a8.63,8.63,0,0,0-5.9,3.2v28h-13.72V633.41c0-2.74-1.08-4.08-3.31-4.08a7.87,7.87,0,0,0-5.95,3.52v27.63h-13.61Z" transform="translate(-695.87 -524.31)"/><path id="Path_87" data-name="Path 87" class="cls-1" d="M1098.35,620.37h13.77v26.71c0,2.59,1,4.4,3.83,4.4a8.87,8.87,0,0,0,6.47-3.57V620.37h13.77v40.11H1123.3l-.78-4.39a16.71,16.71,0,0,1-11.64,5.17c-9,0-12.53-5.17-12.53-14.75Z" transform="translate(-695.87 -524.31)"/><path id="Path_88" data-name="Path 88" class="cls-1" d="M1142.91,620.37h13.15l.57,4.35a16.75,16.75,0,0,1,11.59-5.18c9.06,0,12.53,5.18,12.53,14.65v26.4h-13.87V633.73c0-2.64-1.14-4.4-3.88-4.4a8.52,8.52,0,0,0-6.47,3.67v27.48h-13.62Z" transform="translate(-695.87 -524.31)"/><path id="Path_89" data-name="Path 89" class="cls-1" d="M1206.06,619.44a17.35,17.35,0,0,1,18.9,15.63,16.63,16.63,0,0,1,0,2.64,38.18,38.18,0,0,1-.51,5.85h-25a7.15,7.15,0,0,0,7.06,7.23,6.28,6.28,0,0,0,.75,0,21.14,21.14,0,0,0,10.77-3.15l5.59,8.28a29.13,29.13,0,0,1-17.65,5.59,19.77,19.77,0,0,1-20.73-18.77,18.43,18.43,0,0,1,0-2.35,20,20,0,0,1,19-20.9C1204.9,619.42,1205.48,619.42,1206.06,619.44Zm-6.42,17h12.53c0-4.3-1.61-7.51-5.64-7.51C1203.11,629,1200.47,631.24,1199.64,636.47Z" transform="translate(-695.87 -524.31)"/><path id="Path_90" data-name="Path 90" class="cls-1" d="M965,586.83v-15c0-8.9-4.76-14.8-17.24-14.8a40.72,40.72,0,0,0-16.66,4.14l-2,1,3.52,10.36,2.27-1.09a29,29,0,0,1,12.17-3.68c2.79,0,4.35,1.19,4.35,3.68v2c-17.19,1.55-22.83,7.35-22.83,14.9a10.67,10.67,0,0,0,10.92,10.4l.73,0a15.23,15.23,0,0,0,12.37-5.59c2.74,4.24,6.26,5.17,14.95,5.17v-9.06C965.85,589.26,965,588.44,965,586.83Zm-13.61,0a7.37,7.37,0,0,1-5.59,2.69,3.32,3.32,0,0,1-3.57-3c0-.09,0-.18,0-.27,0-3.73,3.78-5.54,9.17-6Z" transform="translate(-695.87 -524.31)"/><path id="Path_91" data-name="Path 91" class="cls-1" d="M877,609.19h14.13V629h0l14.18-19.83h15.53l-18,24.54h0l18.94,26.65H905.34L891,639.68h0v20.7H877Z" transform="translate(-695.87 -524.31)"/><path id="Path_92" data-name="Path 92" class="cls-1" d="M754.51,604.53a3.21,3.21,0,0,0-3.15,3v21.89a22.49,22.49,0,0,0,5.59.83h1V607.54a3.21,3.21,0,0,0-3.4-3Z" transform="translate(-695.87 -524.31)"/><path id="Path_93" data-name="Path 93" class="cls-1" d="M780.86,605.31a5.7,5.7,0,0,0-11.34,0v22.1a22.84,22.84,0,0,1,5.7-.78,23.79,23.79,0,0,1,5.69.78v-22.1Z" transform="translate(-695.87 -524.31)"/><path id="Path_94" data-name="Path 94" class="cls-1" d="M775.22,524.31a79.35,79.35,0,1,0,79.34,79.34,79.35,79.35,0,0,0-79.34-79.34Zm27.38,31.31c.31,1.14,2.74,1,2.74,3a1.9,1.9,0,0,1-.72,1.45h-4.09a2.07,2.07,0,0,1-.73-1.45C799.85,556.55,802.24,556.76,802.6,555.62Zm-10.72-1.19c.42,1.4,3.52,1.29,3.47,3.88a2.35,2.35,0,0,1-.88,1.81H789.3a2.35,2.35,0,0,1-.88-1.81C788.42,555.36,791.47,555.83,791.88,554.43Zm-18.78-6.52a2.36,2.36,0,0,1-.32-1.19,2.44,2.44,0,0,1,4.82-.71,2.81,2.81,0,0,1,0,.71,2.45,2.45,0,0,1-.31,1.19,8.64,8.64,0,0,1,8,7.45,7.12,7.12,0,0,1-2.59,5.18H767.66a7.19,7.19,0,0,1-2.59-5.18A8.7,8.7,0,0,1,773.1,547.91Zm11.12,33.33h-4.55l-1-11.9a3.75,3.75,0,0,0-3.47-3.63,3.63,3.63,0,0,0-3.68,3.42l-.83,12.11h-4.55l1.45-18.17h15.16Zm-25.88-26.65c.42,1.39,3.47,1.13,3.47,3.88a2.37,2.37,0,0,1-.88,1.81h-5.17a2.37,2.37,0,0,1-.88-1.81c.15-2.75,3.1-2.64,3.62-4ZM748,555.78c.31,1.13,2.75.93,2.75,3.05a1.94,1.94,0,0,1-.73,1.45h-4.14a1.9,1.9,0,0,1-.72-1.45c0-2.17,2.48-2.07,2.79-3.21Zm-20.7,58.33a10.35,10.35,0,1,1,1.19-19.36,6.36,6.36,0,0,0-2.9.41,7.05,7.05,0,0,0,4.81,13.26,7,7,0,0,0,3.83-3.32,10.66,10.66,0,0,1-7,8.85ZM745.56,565h.31v-3.11H750V565h6v-3.11h5.18V565h4.35l-1.56,16.25H734.79Zm33.13,86.49H771.8a49.84,49.84,0,0,1-13.4-2.69c5.74-.47,10.92-3.63,16.92-3.63s11.08,3.16,16.87,3.63A52.68,52.68,0,0,1,778.69,651.48Zm29-13.3a30.84,30.84,0,0,1-5.17,5.17,31.82,31.82,0,0,1-8.91,1.71c-6.41,0-11.95-3.62-18.22-3.62s-11.8,3.62-18.27,3.62a31.12,31.12,0,0,1-9.21-1.71,30.17,30.17,0,0,1-5.18-5.17c-.46-.57-.93-1.25-1.34-1.87A117.37,117.37,0,0,0,757,639.68c6.31,0,11.8-3.63,18.27-3.63s11.9,3.63,18.22,3.63A110.88,110.88,0,0,0,809,636.31,12.13,12.13,0,0,1,807.72,638.18Zm6.68-50v5.17h0a16.64,16.64,0,0,0-4.66,13v20.71h3.88a39.26,39.26,0,0,1-2,5.17c-6.22,0-11.65,3.58-18,3.52s-12-3.62-18.22-3.62-11.8,3.62-18.27,3.62-11.81-3.46-18-3.52a39.26,39.26,0,0,1-2-5.17h3.93V606.34a16.44,16.44,0,0,0-4.87-13.3h0v-9.62h7.25V588h6.63v-4.6H758V588h6.58v-4.6h7.6V588h6.53v-4.6h7.6V588h6.37v-4.6h7.61V588h6.57v-4.6h7.56Zm-27.9-6.94-1.45-16.1h4.3V562h5.17v3.1h6.11V562h3.93v3.1h0l11.08,16.1Zm43,27.49-2.9,7.4-2.9-7.4-7.81,1.19,4.92-6.22-4.92-6.15,7.81,1.13,2.9-7.35,2.9,7.35,7.82-1.13-4.92,6.15,4.92,6.22Z" transform="translate(-695.87 -524.31)"/><path id="Path_95" data-name="Path 95" class="cls-1" d="M795.92,604.53a3.22,3.22,0,0,0-3.21,3v22.67h.73a23.35,23.35,0,0,0,5.69-.83V607.54A3.21,3.21,0,0,0,795.92,604.53Z" transform="translate(-695.87 -524.31)"/><path id="Path_96" data-name="Path 96" class="cls-1" d="M795.87,598.27a9.26,9.26,0,0,0-7.4,3.68,13.66,13.66,0,0,0-26.5,0,9.37,9.37,0,0,0-16.77,5.17v20.7l2.27.63V607.12a7,7,0,0,1,14.08,0v22.57a16,16,0,0,0,2.28-.62v-24a11.39,11.39,0,0,1,22.72,0v24l2.28.62V607.12a7,7,0,0,1,14.08,0h0v21.22l2.28-.62v-20.6A9.32,9.32,0,0,0,795.87,598.27Z" transform="translate(-695.87 -524.31)"/></g></svg>